<mxfile host="app.diagrams.net" modified="2024-05-12T19:58:41.084Z" agent="Mozilla/5.0 (Windows NT 10.0; Win64; x64) AppleWebKit/537.36 (KHTML, like Gecko) Chrome/124.0.0.0 Safari/537.36" etag="MJqhQ0JXzuLXUTqinPVi" version="24.4.0" type="github">
  <diagram name="Page-1" id="wPbULrvWbYby7TwSIXFc">
    <mxGraphModel dx="880" dy="1568" grid="1" gridSize="10" guides="1" tooltips="1" connect="1" arrows="1" fold="1" page="1" pageScale="1" pageWidth="850" pageHeight="1100" math="0" shadow="0">
      <root>
        <mxCell id="0" />
        <mxCell id="1" parent="0" />
        <mxCell id="97iyYRO6kpD9jcjL3rj6-1" value="START" style="ellipse;whiteSpace=wrap;html=1;" parent="1" vertex="1">
          <mxGeometry x="10" y="-1100" width="120" height="80" as="geometry" />
        </mxCell>
        <mxCell id="97iyYRO6kpD9jcjL3rj6-3" value="" style="endArrow=classic;html=1;rounded=0;exitX=0.5;exitY=1;exitDx=0;exitDy=0;entryX=0;entryY=0.25;entryDx=0;entryDy=0;" parent="1" source="97iyYRO6kpD9jcjL3rj6-1" edge="1" target="cP8xEQBQeLHDcNgAcrxB-1">
          <mxGeometry width="50" height="50" relative="1" as="geometry">
            <mxPoint x="400" y="-910" as="sourcePoint" />
            <mxPoint x="70" y="-990" as="targetPoint" />
          </mxGeometry>
        </mxCell>
        <mxCell id="97iyYRO6kpD9jcjL3rj6-4" value="cin&lt;div&gt;&amp;nbsp;Seconds&lt;/div&gt;" style="shape=parallelogram;perimeter=parallelogramPerimeter;whiteSpace=wrap;html=1;fixedSize=1;" parent="1" vertex="1">
          <mxGeometry x="10" y="-990" width="120" height="60" as="geometry" />
        </mxCell>
        <mxCell id="97iyYRO6kpD9jcjL3rj6-5" value="" style="endArrow=classic;html=1;rounded=0;exitX=0.5;exitY=1;exitDx=0;exitDy=0;" parent="1" source="97iyYRO6kpD9jcjL3rj6-4" target="97iyYRO6kpD9jcjL3rj6-6" edge="1">
          <mxGeometry width="50" height="50" relative="1" as="geometry">
            <mxPoint x="400" y="-910" as="sourcePoint" />
            <mxPoint x="70" y="-910" as="targetPoint" />
          </mxGeometry>
        </mxCell>
        <mxCell id="97iyYRO6kpD9jcjL3rj6-6" value="&lt;div style=&quot;font-family: Consolas, &amp;quot;Courier New&amp;quot;, monospace; line-height: 19px; white-space: pre;&quot;&gt;&lt;span style=&quot;background-color: rgb(255, 255, 255);&quot;&gt;&lt;font style=&quot;font-size: 11px;&quot;&gt;seconds &amp;lt; 0&lt;/font&gt;&lt;/span&gt;&lt;/div&gt;" style="rhombus;whiteSpace=wrap;html=1;" parent="1" vertex="1">
          <mxGeometry x="30" y="-910" width="80" height="80" as="geometry" />
        </mxCell>
        <mxCell id="97iyYRO6kpD9jcjL3rj6-7" value="" style="endArrow=classic;html=1;rounded=0;" parent="1" edge="1">
          <mxGeometry width="50" height="50" relative="1" as="geometry">
            <mxPoint x="120" y="-870" as="sourcePoint" />
            <mxPoint x="200" y="-870" as="targetPoint" />
          </mxGeometry>
        </mxCell>
        <mxCell id="97iyYRO6kpD9jcjL3rj6-8" value="&lt;br&gt;&lt;span style=&quot;font-family: ui-monospace, SFMono-Regular, &amp;quot;SF Mono&amp;quot;, Menlo, Consolas, &amp;quot;Liberation Mono&amp;quot;, monospace; font-size: 13.6px; font-style: normal; font-variant-ligatures: normal; font-variant-caps: normal; font-weight: 400; letter-spacing: normal; orphans: 2; text-align: start; text-indent: 0px; text-transform: none; widows: 2; word-spacing: 0px; -webkit-text-stroke-width: 0px; white-space: break-spaces; text-decoration-thickness: initial; text-decoration-style: initial; text-decoration-color: initial; float: none; display: inline !important;&quot;&gt;cout&lt;/span&gt;&lt;div&gt;&lt;span style=&quot;font-family: ui-monospace, SFMono-Regular, &amp;quot;SF Mono&amp;quot;, Menlo, Consolas, &amp;quot;Liberation Mono&amp;quot;, monospace; font-size: 13.6px; font-style: normal; font-variant-ligatures: normal; font-variant-caps: normal; font-weight: 400; letter-spacing: normal; orphans: 2; text-align: start; text-indent: 0px; text-transform: none; widows: 2; word-spacing: 0px; -webkit-text-stroke-width: 0px; white-space: break-spaces; text-decoration-thickness: initial; text-decoration-style: initial; text-decoration-color: initial; float: none; display: inline !important;&quot;&gt;Error: Input seconds cannot be negative.&lt;/span&gt;&lt;div&gt;&lt;br&gt;&lt;/div&gt;&lt;/div&gt;" style="shape=parallelogram;perimeter=parallelogramPerimeter;whiteSpace=wrap;html=1;fixedSize=1;" parent="1" vertex="1">
          <mxGeometry x="190" y="-900" width="200" height="60" as="geometry" />
        </mxCell>
        <mxCell id="97iyYRO6kpD9jcjL3rj6-9" value="" style="endArrow=classic;html=1;rounded=0;exitX=0.5;exitY=1;exitDx=0;exitDy=0;" parent="1" target="97iyYRO6kpD9jcjL3rj6-10" edge="1">
          <mxGeometry width="50" height="50" relative="1" as="geometry">
            <mxPoint x="70" y="-830" as="sourcePoint" />
            <mxPoint x="70" y="-810" as="targetPoint" />
          </mxGeometry>
        </mxCell>
        <mxCell id="97iyYRO6kpD9jcjL3rj6-10" value="&lt;div style=&quot;font-family: Consolas, &amp;quot;Courier New&amp;quot;, monospace; line-height: 19px; white-space: pre;&quot;&gt;&lt;span style=&quot;background-color: rgb(255, 255, 255);&quot;&gt;&lt;font style=&quot;font-size: 11px;&quot;&gt;seconds == 0&lt;/font&gt;&lt;/span&gt;&lt;/div&gt;" style="rhombus;whiteSpace=wrap;html=1;" parent="1" vertex="1">
          <mxGeometry x="30" y="-810" width="80" height="80" as="geometry" />
        </mxCell>
        <mxCell id="97iyYRO6kpD9jcjL3rj6-11" value="" style="endArrow=classic;html=1;rounded=0;" parent="1" edge="1">
          <mxGeometry width="50" height="50" relative="1" as="geometry">
            <mxPoint x="120" y="-770" as="sourcePoint" />
            <mxPoint x="200" y="-770" as="targetPoint" />
          </mxGeometry>
        </mxCell>
        <mxCell id="97iyYRO6kpD9jcjL3rj6-12" value="&lt;div&gt;cout&lt;/div&gt;&lt;div&gt;00:00:00&lt;/div&gt;" style="shape=parallelogram;perimeter=parallelogramPerimeter;whiteSpace=wrap;html=1;fixedSize=1;" parent="1" vertex="1">
          <mxGeometry x="190" y="-800" width="200" height="60" as="geometry" />
        </mxCell>
        <mxCell id="97iyYRO6kpD9jcjL3rj6-13" value="" style="endArrow=classic;html=1;rounded=0;exitX=0.5;exitY=1;exitDx=0;exitDy=0;" parent="1" target="97iyYRO6kpD9jcjL3rj6-14" edge="1">
          <mxGeometry width="50" height="50" relative="1" as="geometry">
            <mxPoint x="70" y="-730" as="sourcePoint" />
            <mxPoint x="70" y="-710" as="targetPoint" />
          </mxGeometry>
        </mxCell>
        <mxCell id="97iyYRO6kpD9jcjL3rj6-14" value="&lt;div style=&quot;font-family: Consolas, &amp;quot;Courier New&amp;quot;, monospace; line-height: 19px; white-space: pre;&quot;&gt;&lt;span style=&quot;background-color: rgb(255, 255, 255);&quot;&gt;&lt;font style=&quot;font-size: 11px;&quot;&gt;Else&lt;/font&gt;&lt;/span&gt;&lt;/div&gt;" style="rhombus;whiteSpace=wrap;html=1;" parent="1" vertex="1">
          <mxGeometry x="30" y="-710" width="80" height="80" as="geometry" />
        </mxCell>
        <mxCell id="97iyYRO6kpD9jcjL3rj6-15" value="" style="endArrow=classic;html=1;rounded=0;" parent="1" edge="1">
          <mxGeometry width="50" height="50" relative="1" as="geometry">
            <mxPoint x="120" y="-670" as="sourcePoint" />
            <mxPoint x="200" y="-670" as="targetPoint" />
          </mxGeometry>
        </mxCell>
        <mxCell id="97iyYRO6kpD9jcjL3rj6-16" value="&lt;div&gt;&lt;div style=&quot;font-family: Consolas, &amp;quot;Courier New&amp;quot;, monospace; font-size: 14px; line-height: 19px; white-space: pre;&quot;&gt;&lt;div style=&quot;&quot;&gt;&lt;span style=&quot;background-color: rgb(255, 255, 255);&quot;&gt;string reloj;&lt;/span&gt;&lt;/div&gt;&lt;div style=&quot;&quot;&gt;&lt;span style=&quot;background-color: rgb(255, 255, 255);&quot;&gt;&amp;nbsp; string hora = &quot;0&quot;;&lt;/span&gt;&lt;/div&gt;&lt;div style=&quot;&quot;&gt;&lt;span style=&quot;background-color: rgb(255, 255, 255);&quot;&gt;&amp;nbsp; string minuto = &quot;:0&quot;;&lt;/span&gt;&lt;/div&gt;&lt;div style=&quot;&quot;&gt;&lt;span style=&quot;background-color: rgb(255, 255, 255);&quot;&gt;&amp;nbsp; string segundo = &quot;:&quot;;&lt;/span&gt;&lt;/div&gt;&lt;div style=&quot;&quot;&gt;&lt;span style=&quot;background-color: rgb(255, 255, 255);&quot;&gt;&amp;nbsp; int x = seconds/3600;&lt;/span&gt;&lt;/div&gt;&lt;div style=&quot;&quot;&gt;&lt;span style=&quot;background-color: rgb(255, 255, 255);&quot;&gt;&amp;nbsp; &amp;nbsp; int y = seconds%3600;&lt;/span&gt;&lt;/div&gt;&lt;div style=&quot;&quot;&gt;&lt;span style=&quot;background-color: rgb(255, 255, 255);&quot;&gt;&amp;nbsp; &amp;nbsp; int z = y/60;&lt;/span&gt;&lt;/div&gt;&lt;div style=&quot;&quot;&gt;&lt;span style=&quot;background-color: rgb(255, 255, 255);&quot;&gt;&amp;nbsp; &amp;nbsp; int b = y%60;&lt;/span&gt;&lt;/div&gt;&lt;div style=&quot;&quot;&gt;&lt;span style=&quot;background-color: rgb(255, 255, 255);&quot;&gt;&amp;nbsp; &amp;nbsp; hora += to_string(x);&lt;/span&gt;&lt;/div&gt;&lt;div style=&quot;&quot;&gt;&lt;span style=&quot;background-color: rgb(255, 255, 255);&quot;&gt;&amp;nbsp; &amp;nbsp;minuto += to_string(z);&lt;/span&gt;&lt;/div&gt;&lt;div style=&quot;&quot;&gt;&lt;span style=&quot;background-color: rgb(255, 255, 255);&quot;&gt;&amp;nbsp; &amp;nbsp; segundo += to_string(b);&lt;/span&gt;&lt;/div&gt;&lt;div style=&quot;&quot;&gt;&lt;span style=&quot;background-color: rgb(255, 255, 255);&quot;&gt;&amp;nbsp; &amp;nbsp; reloj += hora;&lt;/span&gt;&lt;/div&gt;&lt;div style=&quot;&quot;&gt;&lt;span style=&quot;background-color: rgb(255, 255, 255);&quot;&gt;&amp;nbsp; &amp;nbsp; reloj += minuto;&lt;/span&gt;&lt;/div&gt;&lt;/div&gt;&lt;/div&gt;" style="shape=parallelogram;perimeter=parallelogramPerimeter;whiteSpace=wrap;html=1;fixedSize=1;" parent="1" vertex="1">
          <mxGeometry x="190" y="-700" width="270" height="250" as="geometry" />
        </mxCell>
        <mxCell id="97iyYRO6kpD9jcjL3rj6-17" value="" style="endArrow=classic;html=1;rounded=0;exitX=0.478;exitY=0.996;exitDx=0;exitDy=0;exitPerimeter=0;" parent="1" source="97iyYRO6kpD9jcjL3rj6-16" target="97iyYRO6kpD9jcjL3rj6-18" edge="1">
          <mxGeometry width="50" height="50" relative="1" as="geometry">
            <mxPoint x="380" y="-520" as="sourcePoint" />
            <mxPoint x="325" y="-420" as="targetPoint" />
          </mxGeometry>
        </mxCell>
        <mxCell id="97iyYRO6kpD9jcjL3rj6-18" value="Segundo.size == 2" style="rhombus;whiteSpace=wrap;html=1;" parent="1" vertex="1">
          <mxGeometry x="270" y="-420" width="105" height="110" as="geometry" />
        </mxCell>
        <mxCell id="97iyYRO6kpD9jcjL3rj6-19" value="" style="endArrow=classic;html=1;rounded=0;exitX=1;exitY=0.5;exitDx=0;exitDy=0;" parent="1" source="97iyYRO6kpD9jcjL3rj6-18" edge="1">
          <mxGeometry width="50" height="50" relative="1" as="geometry">
            <mxPoint x="365" y="-220" as="sourcePoint" />
            <mxPoint x="415" y="-365" as="targetPoint" />
          </mxGeometry>
        </mxCell>
        <mxCell id="97iyYRO6kpD9jcjL3rj6-20" value="&lt;div style=&quot;font-family: Consolas, &amp;quot;Courier New&amp;quot;, monospace; font-weight: normal; font-size: 14px; line-height: 19px; white-space: pre;&quot;&gt;&lt;div style=&quot;&quot;&gt;&lt;span style=&quot;background-color: rgb(255, 255, 255);&quot;&gt;segundo.resize(3, &#39;0&#39;)&lt;/span&gt;&lt;/div&gt;&lt;div style=&quot;&quot;&gt;&lt;span style=&quot;background-color: rgb(255, 255, 255);&quot;&gt;reloj += segundo&lt;/span&gt;&lt;/div&gt;&lt;/div&gt;" style="rounded=0;whiteSpace=wrap;html=1;align=center;" parent="1" vertex="1">
          <mxGeometry x="415" y="-395" width="200" height="60" as="geometry" />
        </mxCell>
        <mxCell id="97iyYRO6kpD9jcjL3rj6-22" value="" style="endArrow=classic;html=1;rounded=0;exitX=0.5;exitY=1;exitDx=0;exitDy=0;" parent="1" source="97iyYRO6kpD9jcjL3rj6-18" edge="1">
          <mxGeometry width="50" height="50" relative="1" as="geometry">
            <mxPoint x="380" y="-260" as="sourcePoint" />
            <mxPoint x="323" y="-280" as="targetPoint" />
          </mxGeometry>
        </mxCell>
        <mxCell id="97iyYRO6kpD9jcjL3rj6-23" value="Else" style="rhombus;whiteSpace=wrap;html=1;" parent="1" vertex="1">
          <mxGeometry x="282.5" y="-280" width="80" height="80" as="geometry" />
        </mxCell>
        <mxCell id="97iyYRO6kpD9jcjL3rj6-24" value="" style="endArrow=classic;html=1;rounded=0;exitX=1;exitY=0.5;exitDx=0;exitDy=0;" parent="1" source="97iyYRO6kpD9jcjL3rj6-23" edge="1">
          <mxGeometry width="50" height="50" relative="1" as="geometry">
            <mxPoint x="380" y="-260" as="sourcePoint" />
            <mxPoint x="390" y="-240" as="targetPoint" />
          </mxGeometry>
        </mxCell>
        <mxCell id="97iyYRO6kpD9jcjL3rj6-26" value="reloj += segundo" style="rounded=0;whiteSpace=wrap;html=1;" parent="1" vertex="1">
          <mxGeometry x="390" y="-270" width="120" height="60" as="geometry" />
        </mxCell>
        <mxCell id="97iyYRO6kpD9jcjL3rj6-27" value="" style="endArrow=classic;html=1;rounded=0;exitX=1;exitY=0.5;exitDx=0;exitDy=0;" parent="1" source="97iyYRO6kpD9jcjL3rj6-20" edge="1">
          <mxGeometry width="50" height="50" relative="1" as="geometry">
            <mxPoint x="380" y="-260" as="sourcePoint" />
            <mxPoint x="650" y="-365" as="targetPoint" />
          </mxGeometry>
        </mxCell>
        <mxCell id="97iyYRO6kpD9jcjL3rj6-28" value="cout&lt;div&gt;reloj&lt;/div&gt;" style="shape=parallelogram;perimeter=parallelogramPerimeter;whiteSpace=wrap;html=1;fixedSize=1;" parent="1" vertex="1">
          <mxGeometry x="640" y="-395" width="120" height="60" as="geometry" />
        </mxCell>
        <mxCell id="97iyYRO6kpD9jcjL3rj6-29" value="" style="endArrow=classic;html=1;rounded=0;exitX=1;exitY=0.5;exitDx=0;exitDy=0;" parent="1" edge="1">
          <mxGeometry width="50" height="50" relative="1" as="geometry">
            <mxPoint x="510" y="-240" as="sourcePoint" />
            <mxPoint x="545" y="-240" as="targetPoint" />
          </mxGeometry>
        </mxCell>
        <mxCell id="97iyYRO6kpD9jcjL3rj6-30" value="cout&lt;div&gt;reloj&lt;/div&gt;" style="shape=parallelogram;perimeter=parallelogramPerimeter;whiteSpace=wrap;html=1;fixedSize=1;" parent="1" vertex="1">
          <mxGeometry x="535" y="-270" width="120" height="60" as="geometry" />
        </mxCell>
        <mxCell id="97iyYRO6kpD9jcjL3rj6-31" value="END" style="ellipse;whiteSpace=wrap;html=1;" parent="1" vertex="1">
          <mxGeometry x="425" y="-850" width="120" height="80" as="geometry" />
        </mxCell>
        <mxCell id="97iyYRO6kpD9jcjL3rj6-32" value="" style="endArrow=classic;html=1;rounded=0;exitX=1;exitY=0.5;exitDx=0;exitDy=0;" parent="1" source="97iyYRO6kpD9jcjL3rj6-12" target="97iyYRO6kpD9jcjL3rj6-31" edge="1">
          <mxGeometry width="50" height="50" relative="1" as="geometry">
            <mxPoint x="460" y="-660" as="sourcePoint" />
            <mxPoint x="510" y="-710" as="targetPoint" />
          </mxGeometry>
        </mxCell>
        <mxCell id="97iyYRO6kpD9jcjL3rj6-33" value="" style="endArrow=classic;html=1;rounded=0;exitX=1;exitY=0.5;exitDx=0;exitDy=0;entryX=0.042;entryY=0.25;entryDx=0;entryDy=0;entryPerimeter=0;" parent="1" source="97iyYRO6kpD9jcjL3rj6-8" target="97iyYRO6kpD9jcjL3rj6-31" edge="1">
          <mxGeometry width="50" height="50" relative="1" as="geometry">
            <mxPoint x="460" y="-660" as="sourcePoint" />
            <mxPoint x="510" y="-710" as="targetPoint" />
          </mxGeometry>
        </mxCell>
        <mxCell id="97iyYRO6kpD9jcjL3rj6-34" value="END" style="ellipse;whiteSpace=wrap;html=1;" parent="1" vertex="1">
          <mxGeometry x="710" y="-290" width="120" height="80" as="geometry" />
        </mxCell>
        <mxCell id="97iyYRO6kpD9jcjL3rj6-35" value="" style="endArrow=classic;html=1;rounded=0;exitX=0.5;exitY=1;exitDx=0;exitDy=0;" parent="1" source="97iyYRO6kpD9jcjL3rj6-28" target="97iyYRO6kpD9jcjL3rj6-34" edge="1">
          <mxGeometry width="50" height="50" relative="1" as="geometry">
            <mxPoint x="460" y="-160" as="sourcePoint" />
            <mxPoint x="510" y="-210" as="targetPoint" />
          </mxGeometry>
        </mxCell>
        <mxCell id="97iyYRO6kpD9jcjL3rj6-36" value="" style="endArrow=classic;html=1;rounded=0;exitX=1;exitY=0.5;exitDx=0;exitDy=0;entryX=-0.042;entryY=0.6;entryDx=0;entryDy=0;entryPerimeter=0;" parent="1" source="97iyYRO6kpD9jcjL3rj6-30" target="97iyYRO6kpD9jcjL3rj6-34" edge="1">
          <mxGeometry width="50" height="50" relative="1" as="geometry">
            <mxPoint x="460" y="-160" as="sourcePoint" />
            <mxPoint x="510" y="-210" as="targetPoint" />
          </mxGeometry>
        </mxCell>
        <mxCell id="cP8xEQBQeLHDcNgAcrxB-1" value="Long Int Seconds" style="rounded=0;whiteSpace=wrap;html=1;" vertex="1" parent="1">
          <mxGeometry x="180" y="-1020" width="120" height="60" as="geometry" />
        </mxCell>
        <mxCell id="cP8xEQBQeLHDcNgAcrxB-2" value="" style="endArrow=classic;html=1;rounded=0;exitX=0;exitY=0.75;exitDx=0;exitDy=0;entryX=1;entryY=0.25;entryDx=0;entryDy=0;" edge="1" parent="1" source="cP8xEQBQeLHDcNgAcrxB-1" target="97iyYRO6kpD9jcjL3rj6-4">
          <mxGeometry width="50" height="50" relative="1" as="geometry">
            <mxPoint x="400" y="-830" as="sourcePoint" />
            <mxPoint x="450" y="-880" as="targetPoint" />
          </mxGeometry>
        </mxCell>
      </root>
    </mxGraphModel>
  </diagram>
</mxfile>
